<svg width="387" height="785" viewBox="0 0 387 785" fill="none" xmlns="http://www.w3.org/2000/svg">
<path d="M385.76 250.461C385.76 249.968 385.76 249.721 385.664 249.533C385.58 249.368 385.445 249.233 385.28 249.149C385.091 249.053 384.845 249.053 384.352 249.053H373.969C373.477 249.053 373.23 249.053 373.042 249.149C372.876 249.233 372.742 249.368 372.657 249.533C372.562 249.721 372.562 249.968 372.562 250.461V340.929C372.562 341.422 372.562 341.669 372.657 341.857C372.742 342.023 372.876 342.157 373.042 342.242C373.23 342.337 373.477 342.337 373.969 342.337H384.352C384.845 342.337 385.091 342.337 385.28 342.242C385.445 342.157 385.58 342.023 385.664 341.857C385.76 341.669 385.76 341.422 385.76 340.929V250.461Z" fill="url(#paint0_linear_299_265)"/>
<path d="M385.76 336.177H373.441V340.929C373.441 341.422 373.441 341.669 373.537 341.857C373.622 342.023 373.756 342.157 373.922 342.242C374.11 342.338 374.356 342.338 374.849 342.338H384.352C384.845 342.338 385.091 342.338 385.28 342.242C385.445 342.157 385.58 342.023 385.664 341.857C385.76 341.669 385.76 341.422 385.76 340.929V336.177Z" fill="url(#paint1_linear_299_265)"/>
<path d="M385.76 255.213H373.441V250.461C373.441 249.968 373.441 249.721 373.537 249.533C373.622 249.368 373.756 249.233 373.922 249.149C374.11 249.053 374.356 249.053 374.849 249.053H384.352C384.845 249.053 385.091 249.053 385.28 249.149C385.445 249.233 385.58 249.368 385.664 249.533C385.76 249.721 385.76 249.968 385.76 250.461V255.213Z" fill="url(#paint2_linear_299_265)"/>
<path fill-rule="evenodd" clip-rule="evenodd" d="M372.753 342.257C372.562 341.88 372.562 341.387 372.562 340.402V250.989C372.562 250.003 372.562 249.51 372.753 249.134C372.922 248.803 373.191 248.533 373.522 248.365C373.899 248.173 374.392 248.173 375.377 248.173H383.824C384.81 248.173 385.303 248.173 385.679 248.365C386.01 248.533 386.28 248.803 386.448 249.134C386.64 249.51 386.64 250.003 386.64 250.989V340.402C386.64 341.387 386.64 341.88 386.448 342.257C386.28 342.588 386.01 342.857 385.679 343.026C385.303 343.218 384.81 343.218 383.824 343.218H375.377C374.392 343.218 373.899 343.218 373.522 343.026C373.191 342.857 372.922 342.588 372.753 342.257ZM373.537 341.857C373.441 341.669 373.441 341.422 373.441 340.93V250.461C373.441 249.968 373.441 249.722 373.537 249.533C373.622 249.368 373.756 249.233 373.922 249.149C374.11 249.053 374.356 249.053 374.849 249.053H384.352C384.845 249.053 385.091 249.053 385.28 249.149C385.445 249.233 385.58 249.368 385.664 249.533C385.76 249.722 385.76 249.968 385.76 250.461V340.93C385.76 341.422 385.76 341.669 385.664 341.857C385.58 342.023 385.445 342.157 385.28 342.242C385.091 342.338 384.845 342.338 384.352 342.338H374.849C374.356 342.338 374.11 342.338 373.922 342.242C373.756 342.157 373.622 342.023 373.537 341.857Z" fill="#353638"/>
<path d="M1.24023 283.902C1.24023 283.409 1.24023 283.163 1.33614 282.975C1.4205 282.809 1.55511 282.674 1.72067 282.59C1.90889 282.494 2.15529 282.494 2.64809 282.494H13.031C13.5238 282.494 13.7702 282.494 13.9584 282.59C14.124 282.674 14.2586 282.809 14.3429 282.975C14.4388 283.163 14.4388 283.409 14.4388 283.902V339.169C14.4388 339.662 14.4388 339.908 14.3429 340.097C14.2586 340.262 14.124 340.397 13.9584 340.481C13.7702 340.577 13.5238 340.577 13.031 340.577H2.64809C2.15529 340.577 1.90889 340.577 1.72067 340.481C1.55511 340.397 1.4205 340.262 1.33614 340.097C1.24023 339.908 1.24023 339.662 1.24023 339.169V283.902Z" fill="url(#paint3_linear_299_265)"/>
<path d="M1.24023 334.417H13.5589V339.169C13.5589 339.662 13.5589 339.909 13.463 340.097C13.3787 340.262 13.2441 340.397 13.0785 340.481C12.8903 340.577 12.6439 340.577 12.1511 340.577H2.64809C2.15529 340.577 1.90889 340.577 1.72067 340.481C1.55511 340.397 1.4205 340.262 1.33614 340.097C1.24023 339.909 1.24023 339.662 1.24023 339.169V334.417Z" fill="url(#paint4_linear_299_265)"/>
<path d="M1.24023 288.654H13.5589V283.902C13.5589 283.409 13.5589 283.163 13.463 282.975C13.3787 282.809 13.2441 282.674 13.0785 282.59C12.8903 282.494 12.6439 282.494 12.1511 282.494H2.64809C2.15529 282.494 1.90889 282.494 1.72067 282.59C1.55511 282.674 1.4205 282.809 1.33614 282.975C1.24023 283.163 1.24023 283.409 1.24023 283.902V288.654Z" fill="url(#paint5_linear_299_265)"/>
<path fill-rule="evenodd" clip-rule="evenodd" d="M0.55216 340.496C0.360352 340.12 0.360352 339.627 0.360352 338.641V284.43C0.360352 283.445 0.360352 282.952 0.55216 282.575C0.720879 282.244 0.990097 281.975 1.32123 281.806C1.69767 281.614 2.19047 281.614 3.17606 281.614H11.6232C12.6088 281.614 13.1016 281.614 13.478 281.806C13.8091 281.975 14.0783 282.244 14.2471 282.575C14.4389 282.952 14.4389 283.445 14.4389 284.43V338.641C14.4389 339.627 14.4389 340.12 14.2471 340.496C14.0783 340.827 13.8091 341.097 13.478 341.265C13.1016 341.457 12.6088 341.457 11.6232 341.457H3.17606C2.19047 341.457 1.69767 341.457 1.32123 341.265C0.990097 341.097 0.720879 340.827 0.55216 340.496ZM1.33616 340.097C1.24026 339.908 1.24026 339.662 1.24026 339.169V283.902C1.24026 283.41 1.24026 283.163 1.33616 282.975C1.42052 282.809 1.55513 282.675 1.7207 282.59C1.90892 282.494 2.15532 282.494 2.64811 282.494H12.1511C12.6439 282.494 12.8903 282.494 13.0785 282.59C13.2441 282.675 13.3787 282.809 13.4631 282.975C13.559 283.163 13.559 283.41 13.559 283.902V339.169C13.559 339.662 13.559 339.908 13.4631 340.097C13.3787 340.262 13.2441 340.397 13.0785 340.481C12.8903 340.577 12.6439 340.577 12.1511 340.577H2.64811C2.15532 340.577 1.90892 340.577 1.7207 340.481C1.55513 340.397 1.42052 340.262 1.33616 340.097Z" fill="#353638"/>
<path d="M1.24023 209.978C1.24023 209.486 1.24023 209.239 1.33614 209.051C1.4205 208.885 1.55511 208.751 1.72067 208.666C1.90889 208.57 2.15529 208.57 2.64809 208.57H13.031C13.5238 208.57 13.7702 208.57 13.9584 208.666C14.124 208.751 14.2586 208.885 14.3429 209.051C14.4388 209.239 14.4388 209.486 14.4388 209.978V265.245C14.4388 265.738 14.4388 265.985 14.3429 266.173C14.2586 266.338 14.124 266.473 13.9584 266.557C13.7702 266.653 13.5238 266.653 13.031 266.653H2.64809C2.15529 266.653 1.90889 266.653 1.72067 266.557C1.55511 266.473 1.4205 266.338 1.33614 266.173C1.24023 265.985 1.24023 265.738 1.24023 265.245V209.978Z" fill="url(#paint6_linear_299_265)"/>
<path d="M1.24023 260.493H13.5589V265.245C13.5589 265.738 13.5589 265.985 13.463 266.173C13.3787 266.339 13.2441 266.473 13.0785 266.558C12.8903 266.653 12.6439 266.653 12.1511 266.653H2.64809C2.15529 266.653 1.90889 266.653 1.72067 266.558C1.55511 266.473 1.4205 266.339 1.33614 266.173C1.24023 265.985 1.24023 265.738 1.24023 265.245V260.493Z" fill="url(#paint7_linear_299_265)"/>
<path d="M1.24023 214.731H13.5589V209.978C13.5589 209.486 13.5589 209.239 13.463 209.051C13.3787 208.885 13.2441 208.751 13.0785 208.666C12.8903 208.57 12.6439 208.57 12.1511 208.57H2.64809C2.15529 208.57 1.90889 208.57 1.72067 208.666C1.55511 208.751 1.4205 208.885 1.33614 209.051C1.24023 209.239 1.24023 209.486 1.24023 209.978V214.731Z" fill="url(#paint8_linear_299_265)"/>
<path fill-rule="evenodd" clip-rule="evenodd" d="M0.55216 266.572C0.360352 266.196 0.360352 265.703 0.360352 264.717V210.507C0.360352 209.521 0.360352 209.028 0.55216 208.651C0.720879 208.32 0.990097 208.051 1.32123 207.882C1.69767 207.69 2.19047 207.69 3.17606 207.69H11.6232C12.6088 207.69 13.1016 207.69 13.478 207.882C13.8091 208.051 14.0783 208.32 14.2471 208.651C14.4389 209.028 14.4389 209.521 14.4389 210.507V264.717C14.4389 265.703 14.4389 266.196 14.2471 266.572C14.0783 266.904 13.8091 267.173 13.478 267.342C13.1016 267.533 12.6088 267.533 11.6232 267.533H3.17606C2.19047 267.533 1.69767 267.533 1.32123 267.342C0.990097 267.173 0.720879 266.904 0.55216 266.572ZM1.33616 266.173C1.24026 265.985 1.24026 265.738 1.24026 265.245V209.979C1.24026 209.486 1.24026 209.239 1.33616 209.051C1.42052 208.885 1.55513 208.751 1.7207 208.666C1.90892 208.57 2.15532 208.57 2.64811 208.57H12.1511C12.6439 208.57 12.8903 208.57 13.0785 208.666C13.2441 208.751 13.3787 208.885 13.4631 209.051C13.559 209.239 13.559 209.486 13.559 209.979V265.245C13.559 265.738 13.559 265.985 13.4631 266.173C13.3787 266.339 13.2441 266.473 13.0785 266.558C12.8903 266.653 12.6439 266.653 12.1511 266.653H2.64811C2.15532 266.653 1.90892 266.653 1.7207 266.558C1.55513 266.473 1.42052 266.339 1.33616 266.173Z" fill="#353638"/>
<path d="M1.24023 153.656C1.24023 153.163 1.24023 152.916 1.33614 152.728C1.4205 152.562 1.55511 152.428 1.72067 152.343C1.90889 152.248 2.15529 152.248 2.64809 152.248H13.031C13.5238 152.248 13.7702 152.248 13.9584 152.343C14.124 152.428 14.2586 152.562 14.3429 152.728C14.4388 152.916 14.4388 153.163 14.4388 153.656V180.761C14.4388 181.254 14.4388 181.5 14.3429 181.689C14.2586 181.854 14.124 181.989 13.9584 182.073C13.7702 182.169 13.5238 182.169 13.031 182.169H2.64809C2.15529 182.169 1.90889 182.169 1.72067 182.073C1.55511 181.989 1.4205 181.854 1.33614 181.689C1.24023 181.5 1.24023 181.254 1.24023 180.761V153.656Z" fill="url(#paint9_linear_299_265)"/>
<path d="M1.24023 158.408H13.5589V153.656C13.5589 153.163 13.5589 152.916 13.463 152.728C13.3787 152.562 13.2441 152.428 13.0785 152.343C12.8903 152.248 12.6439 152.248 12.1511 152.248H2.64809C2.15529 152.248 1.90889 152.248 1.72067 152.343C1.55511 152.428 1.4205 152.562 1.33614 152.728C1.24023 152.916 1.24023 153.163 1.24023 153.656V158.408Z" fill="url(#paint10_linear_299_265)"/>
<path d="M1.24023 176.889H13.5589V181.641C13.5589 182.134 13.5589 182.381 13.463 182.569C13.3787 182.735 13.2441 182.869 13.0785 182.954C12.8903 183.049 12.6439 183.049 12.1511 183.049H2.64809C2.15529 183.049 1.90889 183.049 1.72067 182.954C1.55511 182.869 1.4205 182.735 1.33614 182.569C1.24023 182.381 1.24023 182.134 1.24023 181.641V176.889Z" fill="url(#paint11_linear_299_265)"/>
<path fill-rule="evenodd" clip-rule="evenodd" d="M0.55216 182.088C0.360352 181.712 0.360352 181.219 0.360352 180.233V154.184C0.360352 153.198 0.360352 152.705 0.55216 152.329C0.720879 151.998 0.990097 151.728 1.32123 151.56C1.69767 151.368 2.19047 151.368 3.17606 151.368H11.6232C12.6088 151.368 13.1016 151.368 13.478 151.56C13.8091 151.728 14.0783 151.998 14.2471 152.329C14.4389 152.705 14.4389 153.198 14.4389 154.184V180.233C14.4389 181.219 14.4389 181.712 14.2471 182.088C14.0783 182.419 13.8091 182.689 13.478 182.857C13.1016 183.049 12.6088 183.049 11.6232 183.049H3.17606C2.19047 183.049 1.69767 183.049 1.32123 182.857C0.990097 182.689 0.720879 182.419 0.55216 182.088ZM1.33616 181.689C1.24026 181.5 1.24026 181.254 1.24026 180.761V153.656C1.24026 153.163 1.24026 152.916 1.33616 152.728C1.42052 152.563 1.55513 152.428 1.7207 152.344C1.90892 152.248 2.15532 152.248 2.64811 152.248H12.1511C12.6439 152.248 12.8903 152.248 13.0785 152.344C13.2441 152.428 13.3787 152.563 13.4631 152.728C13.559 152.916 13.559 153.163 13.559 153.656V180.761C13.559 181.254 13.559 181.5 13.4631 181.689C13.3787 181.854 13.2441 181.989 13.0785 182.073C12.8903 182.169 12.6439 182.169 12.1511 182.169H2.64811C2.15532 182.169 1.90892 182.169 1.7207 182.073C1.55513 181.989 1.42052 181.854 1.33616 181.689Z" fill="#353638"/>
<path fill-rule="evenodd" clip-rule="evenodd" d="M15.9684 40.2766C9.15918 53.6425 9.15918 71.1394 9.15918 106.133V678.866C9.15918 713.86 9.15918 731.357 15.9684 744.723C21.9579 756.48 31.5151 766.039 43.2703 772.029C56.6341 778.84 74.1283 778.84 109.117 778.84H277.883C312.871 778.84 330.366 778.84 343.729 772.029C355.485 766.039 365.042 756.48 371.031 744.723C377.84 731.357 377.84 713.86 377.84 678.866V106.133C377.84 71.1394 377.84 53.6425 371.031 40.2766C365.042 28.5196 355.485 18.9609 343.729 12.9704C330.366 6.16016 312.871 6.16016 277.883 6.16016H109.117C74.1283 6.16016 56.6341 6.16016 43.2703 12.9704C31.5151 18.9609 21.9579 28.5196 15.9684 40.2766ZM25.9686 44.5095C20.598 55.0516 20.598 68.852 20.598 96.4527V688.547C20.598 716.148 20.598 729.948 25.9686 740.49C30.6928 749.763 38.2309 757.303 47.5025 762.028C58.043 767.399 71.8412 767.399 99.4377 767.399H287.562C315.158 767.399 328.957 767.399 339.497 762.028C348.769 757.303 356.307 749.763 361.031 740.49C366.402 729.948 366.402 716.148 366.402 688.547V96.4528C366.402 68.852 366.402 55.0516 361.031 44.5095C356.307 35.2364 348.769 27.6971 339.497 22.9722C328.957 17.6007 315.158 17.6007 287.562 17.6007H99.4377C71.8412 17.6007 58.043 17.6007 47.5025 22.9722C38.2309 27.6971 30.6928 35.2364 25.9686 44.5095Z" fill="black"/>
<path fill-rule="evenodd" clip-rule="evenodd" d="M14.9926 38.9162C8.2793 52.0938 8.2793 69.3443 8.2793 103.845V681.155C8.2793 715.656 8.2793 732.906 14.9926 746.084C20.8978 757.675 30.3204 767.099 41.91 773.005C55.0855 779.72 72.3333 779.72 106.829 779.72H280.171C314.666 779.72 331.914 779.72 345.09 773.005C356.679 767.099 366.102 757.675 372.007 746.084C378.72 732.906 378.72 715.656 378.72 681.155V103.845C378.72 69.3443 378.72 52.0938 372.007 38.9162C366.102 27.3248 356.679 17.9007 345.09 11.9946C331.914 5.28027 314.666 5.28027 280.171 5.28027H106.829C72.3333 5.28027 55.0855 5.28027 41.91 11.9946C30.3204 17.9007 20.8978 27.3248 14.9926 38.9162ZM15.9684 40.2767C9.15925 53.6426 9.15925 71.1395 9.15925 106.133V678.867C9.15925 713.86 9.15925 731.357 15.9684 744.723C21.958 756.48 31.5152 766.039 43.2703 772.029C56.6341 778.84 74.1283 778.84 109.117 778.84H277.883C312.871 778.84 330.366 778.84 343.729 772.029C355.485 766.039 365.042 756.48 371.031 744.723C377.841 731.357 377.841 713.86 377.841 678.867V106.133C377.841 71.1395 377.841 53.6426 371.031 40.2767C365.042 28.5198 355.485 18.9611 343.729 12.9706C330.366 6.16032 312.871 6.16032 277.883 6.16032H109.117C74.1283 6.16032 56.6341 6.16032 43.2703 12.9706C31.5152 18.9611 21.958 28.5198 15.9684 40.2767Z" fill="#272624"/>
<path fill-rule="evenodd" clip-rule="evenodd" d="M13.4246 38.1169C6.51953 51.6711 6.51953 69.4144 6.51953 104.901V680.099C6.51953 715.585 6.51953 733.329 13.4246 746.883C19.4985 758.805 29.1904 768.499 41.1111 774.573C54.6631 781.48 72.4037 781.48 107.885 781.48H279.115C314.596 781.48 332.337 781.48 345.889 774.573C357.809 768.499 367.501 758.805 373.575 746.883C380.48 733.329 380.48 715.585 380.48 680.099V104.901C380.48 69.4145 380.48 51.6711 373.575 38.1169C367.501 26.1944 357.809 16.501 345.889 10.4262C332.337 3.52002 314.596 3.52002 279.115 3.52002H107.885C72.4037 3.52002 54.6631 3.52002 41.1111 10.4262C29.1904 16.501 19.4985 26.1944 13.4246 38.1169ZM14.9926 38.916C8.27935 52.0936 8.27935 69.3441 8.27935 103.845V681.155C8.27935 715.656 8.27935 732.906 14.9926 746.084C20.8978 757.675 30.3204 767.099 41.91 773.005C55.0856 779.72 72.3334 779.72 106.829 779.72H280.171C314.666 779.72 331.914 779.72 345.09 773.005C356.679 767.099 366.102 757.675 372.007 746.084C378.72 732.906 378.72 715.656 378.72 681.155V103.845C378.72 69.3441 378.72 52.0936 372.007 38.916C366.102 27.3246 356.679 17.9006 345.09 11.9945C331.914 5.28011 314.666 5.28011 280.171 5.28011H106.829C72.3334 5.28011 55.0856 5.28011 41.91 11.9945C30.3204 17.9006 20.8978 27.3246 14.9926 38.916Z" fill="#4F4C49"/>
<path fill-rule="evenodd" clip-rule="evenodd" d="M11.8567 37.3182C4.75977 51.2488 4.75977 69.4851 4.75977 105.958V679.043C4.75977 715.515 4.75977 733.751 11.8567 747.682C18.0993 759.936 28.0603 769.898 40.3122 776.142C54.2406 783.24 72.474 783.24 108.941 783.24H278.059C314.526 783.24 332.759 783.24 346.688 776.142C358.94 769.898 368.901 759.936 375.143 747.682C382.24 733.751 382.24 715.515 382.24 679.043V105.958C382.24 69.4851 382.24 51.2488 375.143 37.3182C368.901 25.0645 358.94 15.1019 346.688 8.85827C332.759 1.76025 314.526 1.76025 278.059 1.76025H108.941C72.474 1.76025 54.2406 1.76025 40.3122 8.85827C28.0603 15.1019 18.0993 25.0645 11.8567 37.3182ZM13.4247 38.1173C6.51958 51.6714 6.51958 69.4148 6.51958 104.902V680.099C6.51958 715.586 6.51958 733.329 13.4247 746.883C19.4986 758.806 29.1904 768.499 41.1111 774.574C54.6631 781.48 72.4037 781.48 107.885 781.48H279.115C314.596 781.48 332.337 781.48 345.889 774.574C357.81 768.499 367.501 758.806 373.575 746.883C380.48 733.329 380.48 715.586 380.48 680.099V104.902C380.48 69.4148 380.48 51.6714 373.575 38.1173C367.501 26.1947 357.81 16.5014 345.889 10.4265C332.337 3.52034 314.596 3.52034 279.115 3.52034H107.885C72.4037 3.52034 54.6631 3.52034 41.1111 10.4265C29.1904 16.5014 19.4986 26.1947 13.4247 38.1173Z" fill="#C6C3C1"/>
<path fill-rule="evenodd" clip-rule="evenodd" d="M11.0727 36.9183C3.87988 51.0372 3.87988 69.5199 3.87988 106.485V678.514C3.87988 715.48 3.87988 733.962 11.0727 748.081C17.3997 760.501 27.4953 770.598 39.9127 776.926C54.0294 784.12 72.5092 784.12 109.469 784.12H277.531C314.491 784.12 332.971 784.12 347.087 776.926C359.505 770.598 369.6 760.501 375.927 748.081C383.12 733.962 383.12 715.48 383.12 678.514V106.485C383.12 69.5199 383.12 51.0372 375.927 36.9183C369.6 24.499 359.505 14.4018 347.087 8.07382C332.971 0.879883 314.491 0.879883 277.531 0.879883H109.469C72.5092 0.879883 54.0294 0.879883 39.9127 8.07382C27.4953 14.4018 17.3997 24.499 11.0727 36.9183ZM11.8567 37.3179C4.75979 51.2485 4.75979 69.4848 4.75979 105.957V679.042C4.75979 715.515 4.75979 733.751 11.8567 747.682C18.0993 759.936 28.0604 769.898 40.3122 776.142C54.2407 783.24 72.4741 783.24 108.941 783.24H278.059C314.526 783.24 332.759 783.24 346.688 776.142C358.94 769.898 368.901 759.936 375.143 747.682C382.24 733.751 382.24 715.515 382.24 679.042V105.957C382.24 69.4848 382.24 51.2485 375.143 37.3179C368.901 25.0641 358.94 15.1015 346.688 8.85794C332.759 1.75993 314.526 1.75993 278.059 1.75993H108.941C72.4741 1.75993 54.2407 1.75993 40.3122 8.85794C28.0604 15.1015 18.0993 25.0641 11.8567 37.3179Z" fill="#85817D"/>
<path fill-rule="evenodd" clip-rule="evenodd" d="M10.2887 36.519C3 50.8261 3 69.5552 3 107.013V677.987C3 715.445 3 734.174 10.2887 748.481C16.7001 761.066 26.9303 771.298 39.5133 777.71C53.8182 785 72.5444 785 109.997 785H277.003C314.456 785 333.182 785 347.487 777.71C360.07 771.298 370.3 761.066 376.711 748.481C384 734.174 384 715.445 384 677.987V107.013C384 69.5552 384 50.8261 376.711 36.519C370.3 23.9341 360.07 13.7022 347.487 7.28986C333.182 0 314.456 0 277.003 0H109.997C72.5444 0 53.8182 0 39.5133 7.28986C26.9303 13.7022 16.7001 23.9341 10.2887 36.519ZM11.0727 36.9185C3.87991 51.0374 3.87991 69.5201 3.87991 106.485V678.515C3.87991 715.48 3.87991 733.963 11.0727 748.081C17.3997 760.501 27.4954 770.598 39.9128 776.926C54.0294 784.12 72.5092 784.12 109.469 784.12H277.531C314.491 784.12 332.971 784.12 347.087 776.926C359.505 770.598 369.6 760.501 375.927 748.081C383.12 733.963 383.12 715.48 383.12 678.515V106.485C383.12 69.5201 383.12 51.0374 375.927 36.9185C369.6 24.4992 359.505 14.4019 347.087 8.07398C332.971 0.880045 314.491 0.880045 277.531 0.880045H109.469C72.5092 0.880045 54.0294 0.880045 39.9128 8.07398C27.4954 14.4019 17.3997 24.4992 11.0727 36.9185Z" fill="#4F4B47"/>
<rect opacity="0.5" x="294.249" width="6.15935" height="6.16031" fill="#4F4C49"/>
<rect opacity="0.5" x="3" y="82.7241" width="6.15935" height="5.28027" fill="#4F4C49"/>
<rect opacity="0.5" x="3" y="696.996" width="6.15935" height="5.28027" fill="#4F4C49"/>
<rect opacity="0.5" x="377.841" y="696.996" width="6.15935" height="5.28027" fill="#4F4C49"/>
<rect opacity="0.5" x="83.0713" y="778.84" width="5.27945" height="6.16031" fill="#4F4C49"/>
<path opacity="0.5" d="M154.876 8.16166C154.846 7.78852 154.844 7.31617 154.844 6.66016H232.156C232.155 7.31617 232.154 7.78852 232.123 8.16166C232.092 8.54762 232.032 8.78321 231.938 8.96836C231.746 9.34469 231.44 9.65065 231.064 9.84239C230.878 9.93673 230.643 9.99645 230.257 10.028C229.865 10.06 229.364 10.0604 228.656 10.0604H158.344C157.635 10.0604 157.134 10.06 156.742 10.028C156.357 9.99645 156.121 9.93673 155.936 9.84239C155.559 9.65065 155.253 9.34469 155.062 8.96836C154.967 8.78321 154.908 8.54762 154.876 8.16166Z" fill="#0F1013" stroke="url(#paint12_linear_299_265)"/>
<path opacity="0.8" fill-rule="evenodd" clip-rule="evenodd" d="M156.104 7.92008C156.104 7.43405 156.498 7.04004 156.984 7.04004H230.016C230.502 7.04004 230.896 7.43405 230.896 7.92008C230.896 8.40612 230.502 8.80013 230.016 8.80013H156.984C156.498 8.80013 156.104 8.40612 156.104 7.92008Z" fill="#1F2224"/>
<g clip-path="url(#clip0_299_265)">
<path d="M138.506 44.0024C138.506 35.2538 145.597 28.1616 154.344 28.1616H232.656C241.403 28.1616 248.494 35.2538 248.494 44.0024C248.494 52.7511 241.403 59.8432 232.656 59.8432H154.344C145.597 59.8432 138.506 52.7511 138.506 44.0024Z" fill="black"/>
<path fill-rule="evenodd" clip-rule="evenodd" d="M232.656 50.1629C236.058 50.1629 238.816 47.4048 238.816 44.0026C238.816 40.6004 236.058 37.8423 232.656 37.8423C229.255 37.8423 226.497 40.6004 226.497 44.0026C226.497 47.4048 229.255 50.1629 232.656 50.1629ZM232.656 49.2829C235.572 49.2829 237.936 46.9188 237.936 44.0026C237.936 41.0864 235.572 38.7223 232.656 38.7223C229.741 38.7223 227.377 41.0864 227.377 44.0026C227.377 46.9188 229.741 49.2829 232.656 49.2829Z" fill="url(#paint13_linear_299_265)"/>
<g filter="url(#filter0_i_299_265)">
<ellipse cx="232.656" cy="46.2529" rx="1.37008" ry="2.63972" transform="rotate(90 232.656 46.2529)" fill="url(#paint14_radial_299_265)"/>
</g>
<g filter="url(#filter1_i_299_265)">
<ellipse cx="1.37008" cy="2.63972" rx="1.37008" ry="2.63972" transform="matrix(-1.1923e-08 -1 -1 1.19267e-08 235.296 43.2227)" fill="url(#paint15_radial_299_265)"/>
</g>
</g>
<defs>
<filter id="filter0_i_299_265" x="230.017" y="44.8828" width="5.2793" height="2.74023" filterUnits="userSpaceOnUse" color-interpolation-filters="sRGB">
<feFlood flood-opacity="0" result="BackgroundImageFix"/>
<feBlend mode="normal" in="SourceGraphic" in2="BackgroundImageFix" result="shape"/>
<feColorMatrix in="SourceAlpha" type="matrix" values="0 0 0 0 0 0 0 0 0 0 0 0 0 0 0 0 0 0 127 0" result="hardAlpha"/>
<feOffset/>
<feGaussianBlur stdDeviation="0.5"/>
<feComposite in2="hardAlpha" operator="arithmetic" k2="-1" k3="1"/>
<feColorMatrix type="matrix" values="0 0 0 0 0 0 0 0 0 0 0 0 0 0 0 0 0 0 0.5 0"/>
<feBlend mode="normal" in2="shape" result="effect1_innerShadow_299_265"/>
</filter>
<filter id="filter1_i_299_265" x="230.017" y="40.4824" width="5.2793" height="2.74023" filterUnits="userSpaceOnUse" color-interpolation-filters="sRGB">
<feFlood flood-opacity="0" result="BackgroundImageFix"/>
<feBlend mode="normal" in="SourceGraphic" in2="BackgroundImageFix" result="shape"/>
<feColorMatrix in="SourceAlpha" type="matrix" values="0 0 0 0 0 0 0 0 0 0 0 0 0 0 0 0 0 0 127 0" result="hardAlpha"/>
<feOffset/>
<feGaussianBlur stdDeviation="0.5"/>
<feComposite in2="hardAlpha" operator="arithmetic" k2="-1" k3="1"/>
<feColorMatrix type="matrix" values="0 0 0 0 0 0 0 0 0 0 0 0 0 0 0 0 0 0 0.5 0"/>
<feBlend mode="normal" in2="shape" result="effect1_innerShadow_299_265"/>
</filter>
<linearGradient id="paint0_linear_299_265" x1="379.161" y1="249.053" x2="379.161" y2="342.337" gradientUnits="userSpaceOnUse">
<stop stop-color="#272624"/>
<stop offset="0.484375" stop-color="#736F6B"/>
<stop offset="1" stop-color="#4E4A46"/>
</linearGradient>
<linearGradient id="paint1_linear_299_265" x1="379.601" y1="336.793" x2="379.601" y2="341.722" gradientUnits="userSpaceOnUse">
<stop stop-color="#3C3631"/>
<stop offset="0.249443" stop-color="#050000"/>
<stop offset="0.475668" stop-color="#C1BDB9"/>
<stop offset="0.740898" stop-color="#C1BDB9"/>
<stop offset="1" stop-color="#736F6B"/>
</linearGradient>
<linearGradient id="paint2_linear_299_265" x1="379.601" y1="254.597" x2="379.601" y2="249.669" gradientUnits="userSpaceOnUse">
<stop stop-color="#3C3631"/>
<stop offset="0.249443" stop-color="#050000"/>
<stop offset="0.475668" stop-color="#C1BDB9"/>
<stop offset="0.740898" stop-color="#C1BDB9"/>
<stop offset="1" stop-color="#736F6B"/>
</linearGradient>
<linearGradient id="paint3_linear_299_265" x1="7.83954" y1="282.494" x2="7.83954" y2="340.577" gradientUnits="userSpaceOnUse">
<stop stop-color="#272624"/>
<stop offset="0.484375" stop-color="#736F6B"/>
<stop offset="1" stop-color="#4E4A46"/>
</linearGradient>
<linearGradient id="paint4_linear_299_265" x1="7.39959" y1="335.033" x2="7.39959" y2="339.961" gradientUnits="userSpaceOnUse">
<stop stop-color="#3C3631"/>
<stop offset="0.249443" stop-color="#050000"/>
<stop offset="0.475668" stop-color="#C1BDB9"/>
<stop offset="0.740898" stop-color="#C1BDB9"/>
<stop offset="1" stop-color="#736F6B"/>
</linearGradient>
<linearGradient id="paint5_linear_299_265" x1="7.39959" y1="288.038" x2="7.39959" y2="283.11" gradientUnits="userSpaceOnUse">
<stop stop-color="#3C3631"/>
<stop offset="0.249443" stop-color="#050000"/>
<stop offset="0.475668" stop-color="#C1BDB9"/>
<stop offset="0.740898" stop-color="#C1BDB9"/>
<stop offset="1" stop-color="#736F6B"/>
</linearGradient>
<linearGradient id="paint6_linear_299_265" x1="7.83954" y1="208.57" x2="7.83954" y2="266.653" gradientUnits="userSpaceOnUse">
<stop stop-color="#272624"/>
<stop offset="0.484375" stop-color="#736F6B"/>
<stop offset="1" stop-color="#4E4A46"/>
</linearGradient>
<linearGradient id="paint7_linear_299_265" x1="7.39959" y1="261.109" x2="7.39959" y2="266.037" gradientUnits="userSpaceOnUse">
<stop stop-color="#3C3631"/>
<stop offset="0.249443" stop-color="#050000"/>
<stop offset="0.475668" stop-color="#C1BDB9"/>
<stop offset="0.740898" stop-color="#C1BDB9"/>
<stop offset="1" stop-color="#736F6B"/>
</linearGradient>
<linearGradient id="paint8_linear_299_265" x1="7.39959" y1="214.115" x2="7.39959" y2="209.186" gradientUnits="userSpaceOnUse">
<stop stop-color="#3C3631"/>
<stop offset="0.249443" stop-color="#050000"/>
<stop offset="0.475668" stop-color="#C1BDB9"/>
<stop offset="0.740898" stop-color="#C1BDB9"/>
<stop offset="1" stop-color="#736F6B"/>
</linearGradient>
<linearGradient id="paint9_linear_299_265" x1="7.83954" y1="152.248" x2="7.83954" y2="182.169" gradientUnits="userSpaceOnUse">
<stop stop-color="#272624"/>
<stop offset="0.484375" stop-color="#736F6B"/>
<stop offset="1" stop-color="#4E4A46"/>
</linearGradient>
<linearGradient id="paint10_linear_299_265" x1="7.39959" y1="157.792" x2="7.39959" y2="152.864" gradientUnits="userSpaceOnUse">
<stop stop-color="#3C3631"/>
<stop offset="0.249443" stop-color="#050000"/>
<stop offset="0.475668" stop-color="#C1BDB9"/>
<stop offset="0.740898" stop-color="#C1BDB9"/>
<stop offset="1" stop-color="#736F6B"/>
</linearGradient>
<linearGradient id="paint11_linear_299_265" x1="7.39959" y1="177.505" x2="7.39959" y2="182.433" gradientUnits="userSpaceOnUse">
<stop stop-color="#3C3631"/>
<stop offset="0.249443" stop-color="#050000"/>
<stop offset="0.475668" stop-color="#C1BDB9"/>
<stop offset="0.740898" stop-color="#C1BDB9"/>
<stop offset="1" stop-color="#736F6B"/>
</linearGradient>
<linearGradient id="paint12_linear_299_265" x1="154.344" y1="6.16016" x2="154.344" y2="10.5604" gradientUnits="userSpaceOnUse">
<stop stop-color="#101112"/>
<stop offset="1" stop-color="#232425"/>
</linearGradient>
<linearGradient id="paint13_linear_299_265" x1="233.683" y1="36.8156" x2="224.956" y2="43.4879" gradientUnits="userSpaceOnUse">
<stop stop-color="#010005"/>
<stop offset="1" stop-color="#2E2D31"/>
</linearGradient>
<radialGradient id="paint14_radial_299_265" cx="0" cy="0" r="1" gradientUnits="userSpaceOnUse" gradientTransform="translate(231.966 46.2529) rotate(90) scale(3.38504 1.39192)">
<stop stop-color="#1F85DE"/>
<stop offset="0.257948" stop-color="#1B75C9"/>
<stop offset="1" stop-color="#000232"/>
</radialGradient>
<radialGradient id="paint15_radial_299_265" cx="0" cy="0" r="1" gradientUnits="userSpaceOnUse" gradientTransform="translate(0.679637 2.63972) rotate(90) scale(3.38504 1.39192)">
<stop stop-color="#1F85DE"/>
<stop offset="0.257948" stop-color="#1B75C9"/>
<stop offset="1" stop-color="#000232"/>
</radialGradient>
<clipPath id="clip0_299_265">
<rect x="138.506" y="28.1616" width="109.988" height="31.6816" rx="15.8408" fill="white"/>
</clipPath>
</defs>
</svg>
