<svg xmlns="http://www.w3.org/2000/svg" version="1.1" xmlns:xlink="http://www.w3.org/1999/xlink" xmlns:svgjs="http://svgjs.dev/svgjs" width="1440" height="560" preserveAspectRatio="none" viewBox="0 0 1440 560"><g mask="url(&quot;#SvgjsMask1008&quot;)" fill="none"><path d="M-100.83 398.38L-100.83 398.38" stroke="rgba(227, 230, 237, 1)" stroke-width="1.5"></path><path d="M-100.83 398.38L-76.79 550.7" stroke="rgba(227, 230, 237, 1)" stroke-width="1.5"></path><path d="M-100.83 398.38L55.58 507.03" stroke="rgba(227, 230, 237, 1)" stroke-width="1.5"></path><path d="M-100.83 398.38L-105.22 653.7" stroke="rgba(227, 230, 237, 1)" stroke-width="1.5"></path><path d="M-100.83 398.38L65.83 649.91" stroke="rgba(227, 230, 237, 1)" stroke-width="1.5"></path><path d="M-76.79 550.7L-76.79 550.7" stroke="rgba(227, 230, 237, 1)" stroke-width="1.5"></path><path d="M-76.79 550.7L-105.22 653.7" stroke="rgba(227, 230, 237, 1)" stroke-width="1.5"></path><path d="M-76.79 550.7L55.58 507.03" stroke="rgba(227, 230, 237, 1)" stroke-width="1.5"></path><path d="M-76.79 550.7L65.83 649.91" stroke="rgba(227, 230, 237, 1)" stroke-width="1.5"></path><path d="M-76.79 550.7L209.74 701.1" stroke="rgba(227, 230, 237, 1)" stroke-width="1.5"></path><path d="M-105.22 653.7L-105.22 653.7" stroke="rgba(227, 230, 237, 1)" stroke-width="1.5"></path><path d="M-105.22 653.7L65.83 649.91" stroke="rgba(227, 230, 237, 1)" stroke-width="1.5"></path><path d="M-105.22 653.7L55.58 507.03" stroke="rgba(227, 230, 237, 1)" stroke-width="1.5"></path><path d="M-105.22 653.7L209.74 701.1" stroke="rgba(227, 230, 237, 1)" stroke-width="1.5"></path><path d="M-105.22 653.7L230.78 373.3" stroke="rgba(227, 230, 237, 1)" stroke-width="1.5"></path><path d="M55.58 507.03L55.58 507.03" stroke="rgba(227, 230, 237, 1)" stroke-width="1.5"></path><path d="M55.58 507.03L65.83 649.91" stroke="rgba(227, 230, 237, 1)" stroke-width="1.5"></path><path d="M55.58 507.03L230.78 373.3" stroke="rgba(227, 230, 237, 1)" stroke-width="1.5"></path><path d="M55.58 507.03L209.74 701.1" stroke="rgba(227, 230, 237, 1)" stroke-width="1.5"></path><path d="M65.83 649.91L65.83 649.91" stroke="rgba(227, 230, 237, 1)" stroke-width="1.5"></path><path d="M65.83 649.91L209.74 701.1" stroke="rgba(227, 230, 237, 1)" stroke-width="1.5"></path><path d="M65.83 649.91L346.91 646.03" stroke="rgba(227, 230, 237, 1)" stroke-width="1.5"></path><path d="M230.78 373.3L230.78 373.3" stroke="rgba(227, 230, 237, 1)" stroke-width="1.5"></path><path d="M230.78 373.3L402.9 366.21" stroke="rgba(227, 230, 237, 1)" stroke-width="1.5"></path><path d="M209.74 701.1L209.74 701.1" stroke="rgba(227, 230, 237, 1)" stroke-width="1.5"></path><path d="M209.74 701.1L346.91 646.03" stroke="rgba(227, 230, 237, 1)" stroke-width="1.5"></path><path d="M209.74 701.1L386.54 530.38" stroke="rgba(227, 230, 237, 1)" stroke-width="1.5"></path><path d="M402.9 366.21L402.9 366.21" stroke="rgba(227, 230, 237, 1)" stroke-width="1.5"></path><path d="M402.9 366.21L488.81 362.04" stroke="rgba(227, 230, 237, 1)" stroke-width="1.5"></path><path d="M402.9 366.21L491.99 487.53" stroke="rgba(227, 230, 237, 1)" stroke-width="1.5"></path><path d="M402.9 366.21L386.54 530.38" stroke="rgba(227, 230, 237, 1)" stroke-width="1.5"></path><path d="M402.9 366.21L658.61 489.04" stroke="rgba(227, 230, 237, 1)" stroke-width="1.5"></path><path d="M386.54 530.38L386.54 530.38" stroke="rgba(227, 230, 237, 1)" stroke-width="1.5"></path><path d="M386.54 530.38L491.99 487.53" stroke="rgba(227, 230, 237, 1)" stroke-width="1.5"></path><path d="M386.54 530.38L346.91 646.03" stroke="rgba(227, 230, 237, 1)" stroke-width="1.5"></path><path d="M386.54 530.38L488.81 362.04" stroke="rgba(227, 230, 237, 1)" stroke-width="1.5"></path><path d="M386.54 530.38L230.78 373.3" stroke="rgba(227, 230, 237, 1)" stroke-width="1.5"></path><path d="M346.91 646.03L346.91 646.03" stroke="rgba(227, 230, 237, 1)" stroke-width="1.5"></path><path d="M346.91 646.03L491.99 487.53" stroke="rgba(227, 230, 237, 1)" stroke-width="1.5"></path><path d="M488.81 362.04L488.81 362.04" stroke="rgba(227, 230, 237, 1)" stroke-width="1.5"></path><path d="M488.81 362.04L491.99 487.53" stroke="rgba(227, 230, 237, 1)" stroke-width="1.5"></path><path d="M488.81 362.04L658.61 489.04" stroke="rgba(227, 230, 237, 1)" stroke-width="1.5"></path><path d="M491.99 487.53L491.99 487.53" stroke="rgba(227, 230, 237, 1)" stroke-width="1.5"></path><path d="M706.49 389.6L706.49 389.6" stroke="rgba(227, 230, 237, 1)" stroke-width="1.5"></path><path d="M706.49 389.6L658.61 489.04" stroke="rgba(227, 230, 237, 1)" stroke-width="1.5"></path><path d="M706.49 389.6L858.14 394.36" stroke="rgba(227, 230, 237, 1)" stroke-width="1.5"></path><path d="M658.61 489.04L658.61 489.04" stroke="rgba(227, 230, 237, 1)" stroke-width="1.5"></path><path d="M658.61 489.04L491.99 487.53" stroke="rgba(227, 230, 237, 1)" stroke-width="1.5"></path><path d="M658.61 489.04L705.08 678.93" stroke="rgba(227, 230, 237, 1)" stroke-width="1.5"></path><path d="M658.61 489.04L858.14 394.36" stroke="rgba(227, 230, 237, 1)" stroke-width="1.5"></path><path d="M705.08 678.93L705.08 678.93" stroke="rgba(227, 230, 237, 1)" stroke-width="1.5"></path><path d="M705.08 678.93L809.82 691.14" stroke="rgba(227, 230, 237, 1)" stroke-width="1.5"></path><path d="M705.08 678.93L959.65 708.92" stroke="rgba(227, 230, 237, 1)" stroke-width="1.5"></path><path d="M705.08 678.93L491.99 487.53" stroke="rgba(227, 230, 237, 1)" stroke-width="1.5"></path><path d="M803.67 215.77L803.67 215.77" stroke="rgba(227, 230, 237, 1)" stroke-width="1.5"></path><path d="M803.67 215.77L958.08 258.1" stroke="rgba(227, 230, 237, 1)" stroke-width="1.5"></path><path d="M803.67 215.77L858.14 394.36" stroke="rgba(227, 230, 237, 1)" stroke-width="1.5"></path><path d="M803.67 215.77L706.49 389.6" stroke="rgba(227, 230, 237, 1)" stroke-width="1.5"></path><path d="M803.67 215.77L989.14 63.03" stroke="rgba(227, 230, 237, 1)" stroke-width="1.5"></path><path d="M803.67 215.77L999.56 396.28" stroke="rgba(227, 230, 237, 1)" stroke-width="1.5"></path><path d="M858.14 394.36L858.14 394.36" stroke="rgba(227, 230, 237, 1)" stroke-width="1.5"></path><path d="M858.14 394.36L999.56 396.28" stroke="rgba(227, 230, 237, 1)" stroke-width="1.5"></path><path d="M858.14 394.36L958.08 258.1" stroke="rgba(227, 230, 237, 1)" stroke-width="1.5"></path><path d="M858.14 394.36L1006.21 523.64" stroke="rgba(227, 230, 237, 1)" stroke-width="1.5"></path><path d="M809.82 691.14L809.82 691.14" stroke="rgba(227, 230, 237, 1)" stroke-width="1.5"></path><path d="M809.82 691.14L959.65 708.92" stroke="rgba(227, 230, 237, 1)" stroke-width="1.5"></path><path d="M809.82 691.14L658.61 489.04" stroke="rgba(227, 230, 237, 1)" stroke-width="1.5"></path><path d="M809.82 691.14L1006.21 523.64" stroke="rgba(227, 230, 237, 1)" stroke-width="1.5"></path><path d="M809.82 691.14L858.14 394.36" stroke="rgba(227, 230, 237, 1)" stroke-width="1.5"></path><path d="M952.55 -82.45L952.55 -82.45" stroke="rgba(227, 230, 237, 1)" stroke-width="1.5"></path><path d="M952.55 -82.45L989.14 63.03" stroke="rgba(227, 230, 237, 1)" stroke-width="1.5"></path><path d="M952.55 -82.45L1147.62 -61.85" stroke="rgba(227, 230, 237, 1)" stroke-width="1.5"></path><path d="M952.55 -82.45L1122.18 99.56" stroke="rgba(227, 230, 237, 1)" stroke-width="1.5"></path><path d="M952.55 -82.45L803.67 215.77" stroke="rgba(227, 230, 237, 1)" stroke-width="1.5"></path><path d="M952.55 -82.45L958.08 258.1" stroke="rgba(227, 230, 237, 1)" stroke-width="1.5"></path><path d="M989.14 63.03L989.14 63.03" stroke="rgba(227, 230, 237, 1)" stroke-width="1.5"></path><path d="M989.14 63.03L1122.18 99.56" stroke="rgba(227, 230, 237, 1)" stroke-width="1.5"></path><path d="M958.08 258.1L958.08 258.1" stroke="rgba(227, 230, 237, 1)" stroke-width="1.5"></path><path d="M958.08 258.1L999.56 396.28" stroke="rgba(227, 230, 237, 1)" stroke-width="1.5"></path><path d="M958.08 258.1L1126.79 213.05" stroke="rgba(227, 230, 237, 1)" stroke-width="1.5"></path><path d="M958.08 258.1L989.14 63.03" stroke="rgba(227, 230, 237, 1)" stroke-width="1.5"></path><path d="M958.08 258.1L1122.18 99.56" stroke="rgba(227, 230, 237, 1)" stroke-width="1.5"></path><path d="M999.56 396.28L999.56 396.28" stroke="rgba(227, 230, 237, 1)" stroke-width="1.5"></path><path d="M999.56 396.28L1006.21 523.64" stroke="rgba(227, 230, 237, 1)" stroke-width="1.5"></path><path d="M999.56 396.28L1158.66 398.43" stroke="rgba(227, 230, 237, 1)" stroke-width="1.5"></path><path d="M1006.21 523.64L1006.21 523.64" stroke="rgba(227, 230, 237, 1)" stroke-width="1.5"></path><path d="M1006.21 523.64L1133.94 489.52" stroke="rgba(227, 230, 237, 1)" stroke-width="1.5"></path><path d="M1006.21 523.64L959.65 708.92" stroke="rgba(227, 230, 237, 1)" stroke-width="1.5"></path><path d="M959.65 708.92L959.65 708.92" stroke="rgba(227, 230, 237, 1)" stroke-width="1.5"></path><path d="M959.65 708.92L1158.95 648.98" stroke="rgba(227, 230, 237, 1)" stroke-width="1.5"></path><path d="M959.65 708.92L1133.94 489.52" stroke="rgba(227, 230, 237, 1)" stroke-width="1.5"></path><path d="M959.65 708.92L999.56 396.28" stroke="rgba(227, 230, 237, 1)" stroke-width="1.5"></path><path d="M1147.62 -61.85L1147.62 -61.85" stroke="rgba(227, 230, 237, 1)" stroke-width="1.5"></path><path d="M1147.62 -61.85L1122.18 99.56" stroke="rgba(227, 230, 237, 1)" stroke-width="1.5"></path><path d="M1147.62 -61.85L1286 60.15" stroke="rgba(227, 230, 237, 1)" stroke-width="1.5"></path><path d="M1122.18 99.56L1122.18 99.56" stroke="rgba(227, 230, 237, 1)" stroke-width="1.5"></path><path d="M1122.18 99.56L1126.79 213.05" stroke="rgba(227, 230, 237, 1)" stroke-width="1.5"></path><path d="M1122.18 99.56L1251.18 196.46" stroke="rgba(227, 230, 237, 1)" stroke-width="1.5"></path><path d="M1122.18 99.56L1286 60.15" stroke="rgba(227, 230, 237, 1)" stroke-width="1.5"></path><path d="M1126.79 213.05L1126.79 213.05" stroke="rgba(227, 230, 237, 1)" stroke-width="1.5"></path><path d="M1126.79 213.05L1251.18 196.46" stroke="rgba(227, 230, 237, 1)" stroke-width="1.5"></path><path d="M1126.79 213.05L1242.82 346.98" stroke="rgba(227, 230, 237, 1)" stroke-width="1.5"></path><path d="M1126.79 213.05L1158.66 398.43" stroke="rgba(227, 230, 237, 1)" stroke-width="1.5"></path><path d="M1126.79 213.05L989.14 63.03" stroke="rgba(227, 230, 237, 1)" stroke-width="1.5"></path><path d="M1158.66 398.43L1158.66 398.43" stroke="rgba(227, 230, 237, 1)" stroke-width="1.5"></path><path d="M1158.66 398.43L1133.94 489.52" stroke="rgba(227, 230, 237, 1)" stroke-width="1.5"></path><path d="M1158.66 398.43L1242.82 346.98" stroke="rgba(227, 230, 237, 1)" stroke-width="1.5"></path><path d="M1158.66 398.43L1280 522.81" stroke="rgba(227, 230, 237, 1)" stroke-width="1.5"></path><path d="M1133.94 489.52L1133.94 489.52" stroke="rgba(227, 230, 237, 1)" stroke-width="1.5"></path><path d="M1133.94 489.52L1280 522.81" stroke="rgba(227, 230, 237, 1)" stroke-width="1.5"></path><path d="M1133.94 489.52L1158.95 648.98" stroke="rgba(227, 230, 237, 1)" stroke-width="1.5"></path><path d="M1133.94 489.52L999.56 396.28" stroke="rgba(227, 230, 237, 1)" stroke-width="1.5"></path><path d="M1158.95 648.98L1158.95 648.98" stroke="rgba(227, 230, 237, 1)" stroke-width="1.5"></path><path d="M1158.95 648.98L1307.98 709.15" stroke="rgba(227, 230, 237, 1)" stroke-width="1.5"></path><path d="M1286 60.15L1286 60.15" stroke="rgba(227, 230, 237, 1)" stroke-width="1.5"></path><path d="M1286 60.15L1251.18 196.46" stroke="rgba(227, 230, 237, 1)" stroke-width="1.5"></path><path d="M1251.18 196.46L1251.18 196.46" stroke="rgba(227, 230, 237, 1)" stroke-width="1.5"></path><path d="M1251.18 196.46L1242.82 346.98" stroke="rgba(227, 230, 237, 1)" stroke-width="1.5"></path><path d="M1251.18 196.46L1433.24 195.15" stroke="rgba(227, 230, 237, 1)" stroke-width="1.5"></path><path d="M1251.18 196.46L1158.66 398.43" stroke="rgba(227, 230, 237, 1)" stroke-width="1.5"></path><path d="M1242.82 346.98L1242.82 346.98" stroke="rgba(227, 230, 237, 1)" stroke-width="1.5"></path><path d="M1242.82 346.98L1397.79 409.74" stroke="rgba(227, 230, 237, 1)" stroke-width="1.5"></path><path d="M1280 522.81L1280 522.81" stroke="rgba(227, 230, 237, 1)" stroke-width="1.5"></path><path d="M1280 522.81L1425.38 535.51" stroke="rgba(227, 230, 237, 1)" stroke-width="1.5"></path><path d="M1280 522.81L1397.79 409.74" stroke="rgba(227, 230, 237, 1)" stroke-width="1.5"></path><path d="M1280 522.81L1158.95 648.98" stroke="rgba(227, 230, 237, 1)" stroke-width="1.5"></path><path d="M1280 522.81L1242.82 346.98" stroke="rgba(227, 230, 237, 1)" stroke-width="1.5"></path><path d="M1307.98 709.15L1307.98 709.15" stroke="rgba(227, 230, 237, 1)" stroke-width="1.5"></path><path d="M1307.98 709.15L1406.91 673.57" stroke="rgba(227, 230, 237, 1)" stroke-width="1.5"></path><path d="M1307.98 709.15L1280 522.81" stroke="rgba(227, 230, 237, 1)" stroke-width="1.5"></path><path d="M1427.95 -108.59L1427.95 -108.59" stroke="rgba(227, 230, 237, 1)" stroke-width="1.5"></path><path d="M1427.95 -108.59L1601.07 -96.84" stroke="rgba(227, 230, 237, 1)" stroke-width="1.5"></path><path d="M1427.95 -108.59L1286 60.15" stroke="rgba(227, 230, 237, 1)" stroke-width="1.5"></path><path d="M1427.95 -108.59L1611.59 49.33" stroke="rgba(227, 230, 237, 1)" stroke-width="1.5"></path><path d="M1427.95 -108.59L1147.62 -61.85" stroke="rgba(227, 230, 237, 1)" stroke-width="1.5"></path><path d="M1433.24 195.15L1433.24 195.15" stroke="rgba(227, 230, 237, 1)" stroke-width="1.5"></path><path d="M1433.24 195.15L1562.89 244.7" stroke="rgba(227, 230, 237, 1)" stroke-width="1.5"></path><path d="M1397.79 409.74L1397.79 409.74" stroke="rgba(227, 230, 237, 1)" stroke-width="1.5"></path><path d="M1397.79 409.74L1425.38 535.51" stroke="rgba(227, 230, 237, 1)" stroke-width="1.5"></path><path d="M1425.38 535.51L1425.38 535.51" stroke="rgba(227, 230, 237, 1)" stroke-width="1.5"></path><path d="M1425.38 535.51L1406.91 673.57" stroke="rgba(227, 230, 237, 1)" stroke-width="1.5"></path><path d="M1425.38 535.51L1544.1 641.27" stroke="rgba(227, 230, 237, 1)" stroke-width="1.5"></path><path d="M1425.38 535.51L1603.7 497.76" stroke="rgba(227, 230, 237, 1)" stroke-width="1.5"></path><path d="M1406.91 673.57L1406.91 673.57" stroke="rgba(227, 230, 237, 1)" stroke-width="1.5"></path><path d="M1406.91 673.57L1544.1 641.27" stroke="rgba(227, 230, 237, 1)" stroke-width="1.5"></path><path d="M1406.91 673.57L1280 522.81" stroke="rgba(227, 230, 237, 1)" stroke-width="1.5"></path><path d="M1601.07 -96.84L1601.07 -96.84" stroke="rgba(227, 230, 237, 1)" stroke-width="1.5"></path><path d="M1601.07 -96.84L1611.59 49.33" stroke="rgba(227, 230, 237, 1)" stroke-width="1.5"></path><path d="M1601.07 -96.84L1433.24 195.15" stroke="rgba(227, 230, 237, 1)" stroke-width="1.5"></path><path d="M1601.07 -96.84L1562.89 244.7" stroke="rgba(227, 230, 237, 1)" stroke-width="1.5"></path><path d="M1611.59 49.33L1611.59 49.33" stroke="rgba(227, 230, 237, 1)" stroke-width="1.5"></path><path d="M1611.59 49.33L1562.89 244.7" stroke="rgba(227, 230, 237, 1)" stroke-width="1.5"></path><path d="M1611.59 49.33L1433.24 195.15" stroke="rgba(227, 230, 237, 1)" stroke-width="1.5"></path><path d="M1562.89 244.7L1562.89 244.7" stroke="rgba(227, 230, 237, 1)" stroke-width="1.5"></path><path d="M1562.89 244.7L1599.8 400.52" stroke="rgba(227, 230, 237, 1)" stroke-width="1.5"></path><path d="M1562.89 244.7L1397.79 409.74" stroke="rgba(227, 230, 237, 1)" stroke-width="1.5"></path><path d="M1599.8 400.52L1599.8 400.52" stroke="rgba(227, 230, 237, 1)" stroke-width="1.5"></path><path d="M1599.8 400.52L1603.7 497.76" stroke="rgba(227, 230, 237, 1)" stroke-width="1.5"></path><path d="M1599.8 400.52L1397.79 409.74" stroke="rgba(227, 230, 237, 1)" stroke-width="1.5"></path><path d="M1599.8 400.52L1425.38 535.51" stroke="rgba(227, 230, 237, 1)" stroke-width="1.5"></path><path d="M1603.7 497.76L1603.7 497.76" stroke="rgba(227, 230, 237, 1)" stroke-width="1.5"></path><path d="M1603.7 497.76L1544.1 641.27" stroke="rgba(227, 230, 237, 1)" stroke-width="1.5"></path><path d="M1544.1 641.27L1544.1 641.27" stroke="rgba(227, 230, 237, 1)" stroke-width="1.5"></path><path d="M1544.1 641.27L1307.98 709.15" stroke="rgba(227, 230, 237, 1)" stroke-width="1.5"></path><circle r="5" cx="-100.83" cy="398.38" fill="rgba(227, 230, 237, 1)"></circle><circle r="5" cx="-76.79" cy="550.7" fill="rgba(227, 230, 237, 1)"></circle><circle r="5" cx="-105.22" cy="653.7" fill="rgba(227, 230, 237, 1)"></circle><circle r="5" cx="55.58" cy="507.03" fill="rgba(227, 230, 237, 1)"></circle><circle r="5" cx="65.83" cy="649.91" fill="rgba(227, 230, 237, 1)"></circle><circle r="5" cx="230.78" cy="373.3" fill="rgba(227, 230, 237, 1)"></circle><circle r="5" cx="209.74" cy="701.1" fill="rgba(227, 230, 237, 1)"></circle><circle r="5" cx="402.9" cy="366.21" fill="rgba(227, 230, 237, 1)"></circle><circle r="5" cx="386.54" cy="530.38" fill="rgba(227, 230, 237, 1)"></circle><circle r="5" cx="346.91" cy="646.03" fill="rgba(227, 230, 237, 1)"></circle><circle r="5" cx="488.81" cy="362.04" fill="rgba(227, 230, 237, 1)"></circle><circle r="5" cx="491.99" cy="487.53" fill="rgba(227, 230, 237, 1)"></circle><circle r="5" cx="706.49" cy="389.6" fill="rgba(227, 230, 237, 1)"></circle><circle r="5" cx="658.61" cy="489.04" fill="rgba(227, 230, 237, 1)"></circle><circle r="5" cx="705.08" cy="678.93" fill="rgba(227, 230, 237, 1)"></circle><circle r="5" cx="803.67" cy="215.77" fill="rgba(227, 230, 237, 1)"></circle><circle r="5" cx="858.14" cy="394.36" fill="rgba(227, 230, 237, 1)"></circle><circle r="5" cx="809.82" cy="691.14" fill="rgba(227, 230, 237, 1)"></circle><circle r="5" cx="952.55" cy="-82.45" fill="rgba(227, 230, 237, 1)"></circle><circle r="5" cx="989.14" cy="63.03" fill="rgba(227, 230, 237, 1)"></circle><circle r="5" cx="958.08" cy="258.1" fill="rgba(227, 230, 237, 1)"></circle><circle r="5" cx="999.56" cy="396.28" fill="rgba(227, 230, 237, 1)"></circle><circle r="5" cx="1006.21" cy="523.64" fill="rgba(227, 230, 237, 1)"></circle><circle r="5" cx="959.65" cy="708.92" fill="rgba(227, 230, 237, 1)"></circle><circle r="5" cx="1147.62" cy="-61.85" fill="rgba(227, 230, 237, 1)"></circle><circle r="5" cx="1122.18" cy="99.56" fill="rgba(227, 230, 237, 1)"></circle><circle r="5" cx="1126.79" cy="213.05" fill="rgba(227, 230, 237, 1)"></circle><circle r="5" cx="1158.66" cy="398.43" fill="rgba(227, 230, 237, 1)"></circle><circle r="5" cx="1133.94" cy="489.52" fill="rgba(227, 230, 237, 1)"></circle><circle r="5" cx="1158.95" cy="648.98" fill="rgba(227, 230, 237, 1)"></circle><circle r="5" cx="1286" cy="60.15" fill="rgba(227, 230, 237, 1)"></circle><circle r="5" cx="1251.18" cy="196.46" fill="rgba(227, 230, 237, 1)"></circle><circle r="5" cx="1242.82" cy="346.98" fill="rgba(227, 230, 237, 1)"></circle><circle r="5" cx="1280" cy="522.81" fill="rgba(227, 230, 237, 1)"></circle><circle r="5" cx="1307.98" cy="709.15" fill="rgba(227, 230, 237, 1)"></circle><circle r="5" cx="1427.95" cy="-108.59" fill="rgba(227, 230, 237, 1)"></circle><circle r="5" cx="1433.24" cy="195.15" fill="rgba(227, 230, 237, 1)"></circle><circle r="5" cx="1397.79" cy="409.74" fill="rgba(227, 230, 237, 1)"></circle><circle r="5" cx="1425.38" cy="535.51" fill="rgba(227, 230, 237, 1)"></circle><circle r="5" cx="1406.91" cy="673.57" fill="rgba(227, 230, 237, 1)"></circle><circle r="5" cx="1601.07" cy="-96.84" fill="rgba(227, 230, 237, 1)"></circle><circle r="5" cx="1611.59" cy="49.33" fill="rgba(227, 230, 237, 1)"></circle><circle r="5" cx="1562.89" cy="244.7" fill="rgba(227, 230, 237, 1)"></circle><circle r="5" cx="1599.8" cy="400.52" fill="rgba(227, 230, 237, 1)"></circle><circle r="5" cx="1603.7" cy="497.76" fill="rgba(227, 230, 237, 1)"></circle><circle r="5" cx="1544.1" cy="641.27" fill="rgba(227, 230, 237, 1)"></circle><path d="M-95.8 649.42L-95.8 649.42" stroke="hsl(127.10000000000002, 89.5%, 4.8%)" stroke-width="1.5"></path><path d="M-95.8 649.42L-72.75 539.87" stroke="hsl(127.10000000000002, 89.5%, 4.8%)" stroke-width="1.5"></path><path d="M-95.8 649.42L75.4 672.02" stroke="hsl(127.10000000000002, 89.5%, 4.8%)" stroke-width="1.5"></path><path d="M669.68 411.9L669.68 411.9" stroke="hsl(127.10000000000002, 89.5%, 4.8%)" stroke-width="1.5"></path><path d="M669.68 411.9L687.52 555.85" stroke="hsl(127.10000000000002, 89.5%, 4.8%)" stroke-width="1.5"></path><path d="M669.68 411.9L493.96 407.77" stroke="hsl(127.10000000000002, 89.5%, 4.8%)" stroke-width="1.5"></path><path d="M669.68 411.9L842.43 491.09" stroke="hsl(127.10000000000002, 89.5%, 4.8%)" stroke-width="1.5"></path><path d="M687.52 555.85L687.52 555.85" stroke="hsl(127.10000000000002, 89.5%, 4.8%)" stroke-width="1.5"></path><path d="M687.52 555.85L666.02 692.98" stroke="hsl(127.10000000000002, 89.5%, 4.8%)" stroke-width="1.5"></path><path d="M687.52 555.85L842.43 491.09" stroke="hsl(127.10000000000002, 89.5%, 4.8%)" stroke-width="1.5"></path><path d="M687.52 555.85L818.9 684.9" stroke="hsl(127.10000000000002, 89.5%, 4.8%)" stroke-width="1.5"></path><path d="M666.02 692.98L666.02 692.98" stroke="hsl(127.10000000000002, 89.5%, 4.8%)" stroke-width="1.5"></path><path d="M666.02 692.98L818.9 684.9" stroke="hsl(127.10000000000002, 89.5%, 4.8%)" stroke-width="1.5"></path><path d="M666.02 692.98L502.76 540.13" stroke="hsl(127.10000000000002, 89.5%, 4.8%)" stroke-width="1.5"></path><path d="M666.02 692.98L842.43 491.09" stroke="hsl(127.10000000000002, 89.5%, 4.8%)" stroke-width="1.5"></path><path d="M666.02 692.98L395.11 710.57" stroke="hsl(127.10000000000002, 89.5%, 4.8%)" stroke-width="1.5"></path><path d="M1159.99 490.43L1159.99 490.43" stroke="hsl(127.10000000000002, 89.5%, 4.8%)" stroke-width="1.5"></path><path d="M1159.99 490.43L1250.15 513.02" stroke="hsl(127.10000000000002, 89.5%, 4.8%)" stroke-width="1.5"></path><path d="M1159.99 490.43L1141.47 362.12" stroke="hsl(127.10000000000002, 89.5%, 4.8%)" stroke-width="1.5"></path><path d="M1159.99 490.43L1239.57 665.15" stroke="hsl(127.10000000000002, 89.5%, 4.8%)" stroke-width="1.5"></path><path d="M1159.99 490.43L1152.78 686.27" stroke="hsl(127.10000000000002, 89.5%, 4.8%)" stroke-width="1.5"></path><path d="M1159.99 490.43L963.24 510.74" stroke="hsl(127.10000000000002, 89.5%, 4.8%)" stroke-width="1.5"></path><path d="M1248.55 -76.58L1248.55 -76.58" stroke="hsl(127.10000000000002, 89.5%, 4.8%)" stroke-width="1.5"></path><path d="M1248.55 -76.58L1310.09 46.34" stroke="hsl(127.10000000000002, 89.5%, 4.8%)" stroke-width="1.5"></path><path d="M1248.55 -76.58L1395.04 -104.21" stroke="hsl(127.10000000000002, 89.5%, 4.8%)" stroke-width="1.5"></path><path d="M1248.55 -76.58L1391.37 90.22" stroke="hsl(127.10000000000002, 89.5%, 4.8%)" stroke-width="1.5"></path><path d="M1248.55 -76.58L1246.4 218.86" stroke="hsl(127.10000000000002, 89.5%, 4.8%)" stroke-width="1.5"></path><path d="M1248.55 -76.58L1556.9 -98.95" stroke="hsl(127.10000000000002, 89.5%, 4.8%)" stroke-width="1.5"></path><path d="M1295.66 344.89L1295.66 344.89" stroke="hsl(127.10000000000002, 89.5%, 4.8%)" stroke-width="1.5"></path><path d="M1295.66 344.89L1246.4 218.86" stroke="hsl(127.10000000000002, 89.5%, 4.8%)" stroke-width="1.5"></path><path d="M1295.66 344.89L1436.81 374.71" stroke="hsl(127.10000000000002, 89.5%, 4.8%)" stroke-width="1.5"></path><path d="M1295.66 344.89L1141.47 362.12" stroke="hsl(127.10000000000002, 89.5%, 4.8%)" stroke-width="1.5"></path><path d="M1295.66 344.89L1147.44 258.59" stroke="hsl(127.10000000000002, 89.5%, 4.8%)" stroke-width="1.5"></path><path d="M1295.66 344.89L1250.15 513.02" stroke="hsl(127.10000000000002, 89.5%, 4.8%)" stroke-width="1.5"></path><path d="M1391.37 90.22L1391.37 90.22" stroke="hsl(127.10000000000002, 89.5%, 4.8%)" stroke-width="1.5"></path><path d="M1391.37 90.22L1310.09 46.34" stroke="hsl(127.10000000000002, 89.5%, 4.8%)" stroke-width="1.5"></path><path d="M1391.37 90.22L1437.66 206.54" stroke="hsl(127.10000000000002, 89.5%, 4.8%)" stroke-width="1.5"></path><path d="M1391.37 90.22L1246.4 218.86" stroke="hsl(127.10000000000002, 89.5%, 4.8%)" stroke-width="1.5"></path><path d="M1391.37 90.22L1395.04 -104.21" stroke="hsl(127.10000000000002, 89.5%, 4.8%)" stroke-width="1.5"></path><path d="M1611.05 103.91L1611.05 103.91" stroke="hsl(127.10000000000002, 89.5%, 4.8%)" stroke-width="1.5"></path><path d="M1611.05 103.91L1612.36 211.7" stroke="hsl(127.10000000000002, 89.5%, 4.8%)" stroke-width="1.5"></path><path d="M1611.05 103.91L1437.66 206.54" stroke="hsl(127.10000000000002, 89.5%, 4.8%)" stroke-width="1.5"></path><path d="M1611.05 103.91L1556.9 -98.95" stroke="hsl(127.10000000000002, 89.5%, 4.8%)" stroke-width="1.5"></path><path d="M1611.05 103.91L1391.37 90.22" stroke="hsl(127.10000000000002, 89.5%, 4.8%)" stroke-width="1.5"></path><path d="M1611.05 103.91L1556.65 369.47" stroke="hsl(127.10000000000002, 89.5%, 4.8%)" stroke-width="1.5"></path><path d="M1611.05 103.91L1395.04 -104.21" stroke="hsl(127.10000000000002, 89.5%, 4.8%)" stroke-width="1.5"></path><path d="M1556.65 369.47L1556.65 369.47" stroke="hsl(127.10000000000002, 89.5%, 4.8%)" stroke-width="1.5"></path><path d="M1556.65 369.47L1436.81 374.71" stroke="hsl(127.10000000000002, 89.5%, 4.8%)" stroke-width="1.5"></path><path d="M-72.75 539.87L-72.75 539.87" stroke="hsl(127.10000000000002, 89.5%, 4.8%)" stroke-width="1.5"></path><path d="M-72.75 539.87L65.11 495.54" stroke="hsl(127.10000000000002, 89.5%, 4.8%)" stroke-width="1.5"></path><path d="M-72.75 539.87L75.4 672.02" stroke="hsl(127.10000000000002, 89.5%, 4.8%)" stroke-width="1.5"></path><path d="M65.11 495.54L65.11 495.54" stroke="hsl(127.10000000000002, 89.5%, 4.8%)" stroke-width="1.5"></path><path d="M65.11 495.54L215.92 555.11" stroke="hsl(127.10000000000002, 89.5%, 4.8%)" stroke-width="1.5"></path><path d="M65.11 495.54L75.4 672.02" stroke="hsl(127.10000000000002, 89.5%, 4.8%)" stroke-width="1.5"></path><path d="M65.11 495.54L-95.8 649.42" stroke="hsl(127.10000000000002, 89.5%, 4.8%)" stroke-width="1.5"></path><path d="M75.4 672.02L75.4 672.02" stroke="hsl(127.10000000000002, 89.5%, 4.8%)" stroke-width="1.5"></path><path d="M75.4 672.02L213.57 691.78" stroke="hsl(127.10000000000002, 89.5%, 4.8%)" stroke-width="1.5"></path><path d="M215.92 555.11L215.92 555.11" stroke="hsl(127.10000000000002, 89.5%, 4.8%)" stroke-width="1.5"></path><path d="M215.92 555.11L213.57 691.78" stroke="hsl(127.10000000000002, 89.5%, 4.8%)" stroke-width="1.5"></path><path d="M215.92 555.11L353.03 488.35" stroke="hsl(127.10000000000002, 89.5%, 4.8%)" stroke-width="1.5"></path><path d="M215.92 555.11L75.4 672.02" stroke="hsl(127.10000000000002, 89.5%, 4.8%)" stroke-width="1.5"></path><path d="M213.57 691.78L213.57 691.78" stroke="hsl(127.10000000000002, 89.5%, 4.8%)" stroke-width="1.5"></path><path d="M213.57 691.78L395.11 710.57" stroke="hsl(127.10000000000002, 89.5%, 4.8%)" stroke-width="1.5"></path><path d="M213.57 691.78L65.11 495.54" stroke="hsl(127.10000000000002, 89.5%, 4.8%)" stroke-width="1.5"></path><path d="M353.03 488.35L353.03 488.35" stroke="hsl(127.10000000000002, 89.5%, 4.8%)" stroke-width="1.5"></path><path d="M353.03 488.35L502.76 540.13" stroke="hsl(127.10000000000002, 89.5%, 4.8%)" stroke-width="1.5"></path><path d="M353.03 488.35L493.96 407.77" stroke="hsl(127.10000000000002, 89.5%, 4.8%)" stroke-width="1.5"></path><path d="M353.03 488.35L395.11 710.57" stroke="hsl(127.10000000000002, 89.5%, 4.8%)" stroke-width="1.5"></path><path d="M353.03 488.35L213.57 691.78" stroke="hsl(127.10000000000002, 89.5%, 4.8%)" stroke-width="1.5"></path><path d="M395.11 710.57L395.11 710.57" stroke="hsl(127.10000000000002, 89.5%, 4.8%)" stroke-width="1.5"></path><path d="M395.11 710.57L502.76 540.13" stroke="hsl(127.10000000000002, 89.5%, 4.8%)" stroke-width="1.5"></path><path d="M395.11 710.57L215.92 555.11" stroke="hsl(127.10000000000002, 89.5%, 4.8%)" stroke-width="1.5"></path><path d="M395.11 710.57L493.96 407.77" stroke="hsl(127.10000000000002, 89.5%, 4.8%)" stroke-width="1.5"></path><path d="M493.96 407.77L493.96 407.77" stroke="hsl(127.10000000000002, 89.5%, 4.8%)" stroke-width="1.5"></path><path d="M493.96 407.77L502.76 540.13" stroke="hsl(127.10000000000002, 89.5%, 4.8%)" stroke-width="1.5"></path><path d="M493.96 407.77L687.52 555.85" stroke="hsl(127.10000000000002, 89.5%, 4.8%)" stroke-width="1.5"></path><path d="M493.96 407.77L215.92 555.11" stroke="hsl(127.10000000000002, 89.5%, 4.8%)" stroke-width="1.5"></path><path d="M502.76 540.13L502.76 540.13" stroke="hsl(127.10000000000002, 89.5%, 4.8%)" stroke-width="1.5"></path><path d="M502.76 540.13L687.52 555.85" stroke="hsl(127.10000000000002, 89.5%, 4.8%)" stroke-width="1.5"></path><path d="M842.43 491.09L842.43 491.09" stroke="hsl(127.10000000000002, 89.5%, 4.8%)" stroke-width="1.5"></path><path d="M842.43 491.09L963.24 510.74" stroke="hsl(127.10000000000002, 89.5%, 4.8%)" stroke-width="1.5"></path><path d="M842.43 491.09L954.62 343.83" stroke="hsl(127.10000000000002, 89.5%, 4.8%)" stroke-width="1.5"></path><path d="M818.9 684.9L818.9 684.9" stroke="hsl(127.10000000000002, 89.5%, 4.8%)" stroke-width="1.5"></path><path d="M818.9 684.9L991.15 643.04" stroke="hsl(127.10000000000002, 89.5%, 4.8%)" stroke-width="1.5"></path><path d="M818.9 684.9L842.43 491.09" stroke="hsl(127.10000000000002, 89.5%, 4.8%)" stroke-width="1.5"></path><path d="M954.62 343.83L954.62 343.83" stroke="hsl(127.10000000000002, 89.5%, 4.8%)" stroke-width="1.5"></path><path d="M954.62 343.83L963.24 510.74" stroke="hsl(127.10000000000002, 89.5%, 4.8%)" stroke-width="1.5"></path><path d="M954.62 343.83L1141.47 362.12" stroke="hsl(127.10000000000002, 89.5%, 4.8%)" stroke-width="1.5"></path><path d="M954.62 343.83L1147.44 258.59" stroke="hsl(127.10000000000002, 89.5%, 4.8%)" stroke-width="1.5"></path><path d="M954.62 343.83L1159.99 490.43" stroke="hsl(127.10000000000002, 89.5%, 4.8%)" stroke-width="1.5"></path><path d="M954.62 343.83L669.68 411.9" stroke="hsl(127.10000000000002, 89.5%, 4.8%)" stroke-width="1.5"></path><path d="M963.24 510.74L963.24 510.74" stroke="hsl(127.10000000000002, 89.5%, 4.8%)" stroke-width="1.5"></path><path d="M963.24 510.74L991.15 643.04" stroke="hsl(127.10000000000002, 89.5%, 4.8%)" stroke-width="1.5"></path><path d="M991.15 643.04L991.15 643.04" stroke="hsl(127.10000000000002, 89.5%, 4.8%)" stroke-width="1.5"></path><path d="M991.15 643.04L1152.78 686.27" stroke="hsl(127.10000000000002, 89.5%, 4.8%)" stroke-width="1.5"></path><path d="M1147.44 258.59L1147.44 258.59" stroke="hsl(127.10000000000002, 89.5%, 4.8%)" stroke-width="1.5"></path><path d="M1147.44 258.59L1141.47 362.12" stroke="hsl(127.10000000000002, 89.5%, 4.8%)" stroke-width="1.5"></path><path d="M1147.44 258.59L1246.4 218.86" stroke="hsl(127.10000000000002, 89.5%, 4.8%)" stroke-width="1.5"></path><path d="M1141.47 362.12L1141.47 362.12" stroke="hsl(127.10000000000002, 89.5%, 4.8%)" stroke-width="1.5"></path><path d="M1141.47 362.12L1246.4 218.86" stroke="hsl(127.10000000000002, 89.5%, 4.8%)" stroke-width="1.5"></path><path d="M1152.78 686.27L1152.78 686.27" stroke="hsl(127.10000000000002, 89.5%, 4.8%)" stroke-width="1.5"></path><path d="M1152.78 686.27L1239.57 665.15" stroke="hsl(127.10000000000002, 89.5%, 4.8%)" stroke-width="1.5"></path><path d="M1152.78 686.27L1250.15 513.02" stroke="hsl(127.10000000000002, 89.5%, 4.8%)" stroke-width="1.5"></path><path d="M1310.09 46.34L1310.09 46.34" stroke="hsl(127.10000000000002, 89.5%, 4.8%)" stroke-width="1.5"></path><path d="M1310.09 46.34L1395.04 -104.21" stroke="hsl(127.10000000000002, 89.5%, 4.8%)" stroke-width="1.5"></path><path d="M1246.4 218.86L1246.4 218.86" stroke="hsl(127.10000000000002, 89.5%, 4.8%)" stroke-width="1.5"></path><path d="M1246.4 218.86L1310.09 46.34" stroke="hsl(127.10000000000002, 89.5%, 4.8%)" stroke-width="1.5"></path><path d="M1250.15 513.02L1250.15 513.02" stroke="hsl(127.10000000000002, 89.5%, 4.8%)" stroke-width="1.5"></path><path d="M1250.15 513.02L1239.57 665.15" stroke="hsl(127.10000000000002, 89.5%, 4.8%)" stroke-width="1.5"></path><path d="M1250.15 513.02L1430.41 487.89" stroke="hsl(127.10000000000002, 89.5%, 4.8%)" stroke-width="1.5"></path><path d="M1250.15 513.02L1141.47 362.12" stroke="hsl(127.10000000000002, 89.5%, 4.8%)" stroke-width="1.5"></path><path d="M1239.57 665.15L1239.57 665.15" stroke="hsl(127.10000000000002, 89.5%, 4.8%)" stroke-width="1.5"></path><path d="M1239.57 665.15L1397.56 709.65" stroke="hsl(127.10000000000002, 89.5%, 4.8%)" stroke-width="1.5"></path><path d="M1395.04 -104.21L1395.04 -104.21" stroke="hsl(127.10000000000002, 89.5%, 4.8%)" stroke-width="1.5"></path><path d="M1395.04 -104.21L1556.9 -98.95" stroke="hsl(127.10000000000002, 89.5%, 4.8%)" stroke-width="1.5"></path><path d="M1437.66 206.54L1437.66 206.54" stroke="hsl(127.10000000000002, 89.5%, 4.8%)" stroke-width="1.5"></path><path d="M1437.66 206.54L1436.81 374.71" stroke="hsl(127.10000000000002, 89.5%, 4.8%)" stroke-width="1.5"></path><path d="M1437.66 206.54L1612.36 211.7" stroke="hsl(127.10000000000002, 89.5%, 4.8%)" stroke-width="1.5"></path><path d="M1437.66 206.54L1246.4 218.86" stroke="hsl(127.10000000000002, 89.5%, 4.8%)" stroke-width="1.5"></path><path d="M1437.66 206.54L1295.66 344.89" stroke="hsl(127.10000000000002, 89.5%, 4.8%)" stroke-width="1.5"></path><path d="M1436.81 374.71L1436.81 374.71" stroke="hsl(127.10000000000002, 89.5%, 4.8%)" stroke-width="1.5"></path><path d="M1436.81 374.71L1430.41 487.89" stroke="hsl(127.10000000000002, 89.5%, 4.8%)" stroke-width="1.5"></path><path d="M1436.81 374.71L1599.46 535.82" stroke="hsl(127.10000000000002, 89.5%, 4.8%)" stroke-width="1.5"></path><path d="M1430.41 487.89L1430.41 487.89" stroke="hsl(127.10000000000002, 89.5%, 4.8%)" stroke-width="1.5"></path><path d="M1430.41 487.89L1556.65 369.47" stroke="hsl(127.10000000000002, 89.5%, 4.8%)" stroke-width="1.5"></path><path d="M1430.41 487.89L1599.46 535.82" stroke="hsl(127.10000000000002, 89.5%, 4.8%)" stroke-width="1.5"></path><path d="M1397.56 709.65L1397.56 709.65" stroke="hsl(127.10000000000002, 89.5%, 4.8%)" stroke-width="1.5"></path><path d="M1397.56 709.65L1604.19 682.34" stroke="hsl(127.10000000000002, 89.5%, 4.8%)" stroke-width="1.5"></path><path d="M1397.56 709.65L1430.41 487.89" stroke="hsl(127.10000000000002, 89.5%, 4.8%)" stroke-width="1.5"></path><path d="M1397.56 709.65L1250.15 513.02" stroke="hsl(127.10000000000002, 89.5%, 4.8%)" stroke-width="1.5"></path><path d="M1397.56 709.65L1152.78 686.27" stroke="hsl(127.10000000000002, 89.5%, 4.8%)" stroke-width="1.5"></path><path d="M1397.56 709.65L1599.46 535.82" stroke="hsl(127.10000000000002, 89.5%, 4.8%)" stroke-width="1.5"></path><path d="M1556.9 -98.95L1556.9 -98.95" stroke="hsl(127.10000000000002, 89.5%, 4.8%)" stroke-width="1.5"></path><path d="M1556.9 -98.95L1391.37 90.22" stroke="hsl(127.10000000000002, 89.5%, 4.8%)" stroke-width="1.5"></path><path d="M1556.9 -98.95L1310.09 46.34" stroke="hsl(127.10000000000002, 89.5%, 4.8%)" stroke-width="1.5"></path><path d="M1612.36 211.7L1612.36 211.7" stroke="hsl(127.10000000000002, 89.5%, 4.8%)" stroke-width="1.5"></path><path d="M1612.36 211.7L1556.65 369.47" stroke="hsl(127.10000000000002, 89.5%, 4.8%)" stroke-width="1.5"></path><path d="M1599.46 535.82L1599.46 535.82" stroke="hsl(127.10000000000002, 89.5%, 4.8%)" stroke-width="1.5"></path><path d="M1599.46 535.82L1604.19 682.34" stroke="hsl(127.10000000000002, 89.5%, 4.8%)" stroke-width="1.5"></path><path d="M1599.46 535.82L1556.65 369.47" stroke="hsl(127.10000000000002, 89.5%, 4.8%)" stroke-width="1.5"></path><path d="M1604.19 682.34L1604.19 682.34" stroke="hsl(127.10000000000002, 89.5%, 4.8%)" stroke-width="1.5"></path><circle r="25" cx="-95.8" cy="649.42" fill="url(&quot;#SvgjsRadialGradient1009&quot;)"></circle><circle r="25" cx="669.68" cy="411.9" fill="url(&quot;#SvgjsRadialGradient1009&quot;)"></circle><circle r="25" cx="687.52" cy="555.85" fill="url(&quot;#SvgjsRadialGradient1009&quot;)"></circle><circle r="25" cx="666.02" cy="692.98" fill="url(&quot;#SvgjsRadialGradient1009&quot;)"></circle><circle r="25" cx="1159.99" cy="490.43" fill="url(&quot;#SvgjsRadialGradient1009&quot;)"></circle><circle r="25" cx="1248.55" cy="-76.58" fill="url(&quot;#SvgjsRadialGradient1009&quot;)"></circle><circle r="25" cx="1295.66" cy="344.89" fill="url(&quot;#SvgjsRadialGradient1009&quot;)"></circle><circle r="25" cx="1391.37" cy="90.22" fill="url(&quot;#SvgjsRadialGradient1009&quot;)"></circle><circle r="25" cx="1611.05" cy="103.91" fill="url(&quot;#SvgjsRadialGradient1009&quot;)"></circle><circle r="25" cx="1556.65" cy="369.47" fill="url(&quot;#SvgjsRadialGradient1009&quot;)"></circle><circle r="5" cx="-72.75" cy="539.87" fill="#808981"></circle><circle r="5" cx="65.11" cy="495.54" fill="#808981"></circle><circle r="5" cx="75.4" cy="672.02" fill="#808981"></circle><circle r="5" cx="215.92" cy="555.11" fill="#808981"></circle><circle r="5" cx="213.57" cy="691.78" fill="#808981"></circle><circle r="5" cx="353.03" cy="488.35" fill="#808981"></circle><circle r="5" cx="395.11" cy="710.57" fill="#808981"></circle><circle r="5" cx="493.96" cy="407.77" fill="#808981"></circle><circle r="5" cx="502.76" cy="540.13" fill="#808981"></circle><circle r="5" cx="842.43" cy="491.09" fill="#808981"></circle><circle r="5" cx="818.9" cy="684.9" fill="#808981"></circle><circle r="5" cx="954.62" cy="343.83" fill="#808981"></circle><circle r="5" cx="963.24" cy="510.74" fill="#808981"></circle><circle r="5" cx="991.15" cy="643.04" fill="#808981"></circle><circle r="5" cx="1147.44" cy="258.59" fill="#808981"></circle><circle r="5" cx="1141.47" cy="362.12" fill="#808981"></circle><circle r="5" cx="1152.78" cy="686.27" fill="#808981"></circle><circle r="5" cx="1310.09" cy="46.34" fill="#808981"></circle><circle r="5" cx="1246.4" cy="218.86" fill="#808981"></circle><circle r="5" cx="1250.15" cy="513.02" fill="#808981"></circle><circle r="5" cx="1239.57" cy="665.15" fill="#808981"></circle><circle r="5" cx="1395.04" cy="-104.21" fill="#808981"></circle><circle r="5" cx="1437.66" cy="206.54" fill="#808981"></circle><circle r="5" cx="1436.81" cy="374.71" fill="#808981"></circle><circle r="5" cx="1430.41" cy="487.89" fill="#808981"></circle><circle r="5" cx="1397.56" cy="709.65" fill="#808981"></circle><circle r="5" cx="1556.9" cy="-98.95" fill="#808981"></circle><circle r="5" cx="1612.36" cy="211.7" fill="#808981"></circle><circle r="5" cx="1599.46" cy="535.82" fill="#808981"></circle><circle r="5" cx="1604.19" cy="682.34" fill="#808981"></circle></g><defs><mask id="SvgjsMask1008"><rect width="1440" height="560" fill="#ffffff"></rect></mask><radialGradient id="SvgjsRadialGradient1009"><stop stop-color="#ffffff" offset="0.1"></stop><stop stop-color="rgba(1, 18, 3, 1)" offset="0.2"></stop><stop stop-color="rgba(1, 18, 3, 0)" offset="1"></stop></radialGradient></defs></svg>